<svg width="600" height="659" viewBox="0 0 600 659" fill="none" xmlns="http://www.w3.org/2000/svg">
<path d="M587.445 382.852C587.445 534.753 456.226 658 294.223 658C132.22 658 1.00021 534.753 1.00021 382.852C1.00021 345.051 21.1742 302.276 54.1617 259.299C87.1292 216.347 132.799 173.318 183.568 135.032C234.334 96.7479 290.167 63.2293 343.44 39.2856C396.733 15.3334 447.382 1 487.802 1C528.152 1 554.427 15.2776 571.265 38.9531C588.154 62.7008 595.64 96.0316 598.061 134.297C600.48 172.543 597.833 215.57 594.573 258.614C594.088 265.017 593.59 271.42 593.093 277.807C590.249 314.336 587.445 350.357 587.445 382.852Z" stroke="url(#paint0_linear_2767_11758)" stroke-width="2"/>
<defs>
<linearGradient id="paint0_linear_2767_11758" x1="508.656" y1="92.1917" x2="321.429" y2="665.992" gradientUnits="userSpaceOnUse">
<stop stop-color="#F4FF25"/>
<stop offset="1" stop-color="#CB6DE7"/>
</linearGradient>
</defs>
</svg>
