<svg width="1347" height="864" viewBox="0 0 1347 864" fill="none" xmlns="http://www.w3.org/2000/svg">
<path d="M2 523.557C2 616.804 51.9982 701.37 133.125 762.691C214.253 824.013 326.42 862 450.399 862C574.744 862 798.777 856.65 991.685 827.819C1088.16 813.4 1176.7 793.129 1241.08 764.791C1305.63 736.374 1345 700.261 1345 654.577C1345 631.6 1335.08 604.115 1316.96 573.487C1298.85 542.896 1272.67 509.362 1240.42 474.333C1175.91 404.278 1087.26 328.418 990.806 258.399C894.353 188.383 790.151 124.252 694.557 77.6348C598.886 30.9792 512.103 2 450.399 2C326.935 2 214.854 85.3096 133.512 192.479C52.1776 299.639 2 430.114 2 523.557Z" stroke="url(#paint0_linear_2767_9530)" stroke-width="4"/>
<defs>
<linearGradient id="paint0_linear_2767_9530" x1="122.142" y1="165.223" x2="314.536" y2="897.378" gradientUnits="userSpaceOnUse">
<stop stop-color="#F4FF25"/>
<stop offset="1" stop-color="#CB6DE7"/>
</linearGradient>
</defs>
</svg>
