<svg width="840" height="760" viewBox="0 0 840 760" fill="none" xmlns="http://www.w3.org/2000/svg">
<path d="M1 469.625C1 511.464 20.1293 549.809 51.2469 583.958C82.368 618.111 125.431 648.01 173.15 672.921C268.599 722.749 382.461 752.51 456.054 756.501C529.783 760.5 625.642 760.066 703.034 737.61C741.725 726.383 775.721 709.674 800.035 685.336C824.322 661.024 839 629.05 839 587.15C839 545.297 813.898 487.732 773.608 424.796C733.352 361.912 678.047 293.839 617.885 231.021C557.722 168.203 492.728 110.667 433.104 68.8439C403.292 47.9322 374.84 30.9614 349.021 19.222C323.187 7.47633 300.059 1 280.873 1C242.43 1 205.715 19.647 172.221 50.3987C138.729 81.1481 108.531 123.935 83.1501 172.034C32.3817 268.246 1 385.493 1 469.625Z" stroke="url(#paint0_linear_2767_9531)" stroke-width="2"/>
<defs>
<linearGradient id="paint0_linear_2767_9531" x1="76.169" y1="148.203" x2="308.367" y2="762.523" gradientUnits="userSpaceOnUse">
<stop stop-color="#F4FF25"/>
<stop offset="1" stop-color="#CB6DE7"/>
</linearGradient>
</defs>
</svg>
