<svg width="65" height="66" viewBox="0 0 65 66" fill="none" xmlns="http://www.w3.org/2000/svg">
<path id="Star 10" d="M38.498 0.755546L35.6897 25.5201L51.0104 5.8619L38.3723 27.3432L60.3641 15.616L40.0814 30.0998L64.9418 28.3314L40.5215 33.3132L63.9519 41.8093L39.6166 36.4278L57.5657 53.7195L37.5231 38.9051L46.8872 62.0023L34.603 40.3167L33.763 65.2258L31.3611 40.4186L20.4624 62.8325L28.3582 39.193L9.28506 55.2363L26.1133 36.852L2.16375 43.7506L25.0146 33.8004L0.32978 30.3613L25.2522 30.5657L4.10026 17.3837L26.7849 27.7072L12.8232 7.06163L29.3477 25.7193L24.9904 1.17992L32.4975 24.9457L38.498 0.755546Z" fill="#CB6DE7"/>
</svg>
