<?xml version="1.0" encoding="UTF-8" standalone="no"?>
<!DOCTYPE svg PUBLIC "-//W3C//DTD SVG 1.1//EN" "http://www.w3.org/Graphics/SVG/1.1/DTD/svg11.dtd">
<svg xmlns="http://www.w3.org/2000/svg" version="1.1" viewBox="0.00 0.00 219.00 168.00">
<path fill="#f4ff25" d="
  M 200.36 15.35
  C 209.03 26.20 197.56 34.59 190.57 41.38
  Q 190.24 41.70 189.92 41.37
  L 182.45 33.78
  A 0.78 0.78 0.0 0 1 182.45 32.68
  L 199.80 15.32
  A 0.38 0.38 0.0 0 1 200.36 15.35
  Z"
/>
<path fill="#f4ff25" d="
  M 131.54 64.75
  C 131.75 26.77 183.31 26.95 183.37 62.25
  Q 183.40 78.98 183.27 95.72
  Q 183.20 105.57 181.67 110.10
  C 173.65 133.84 139.69 133.19 132.50 109.12
  Q 131.17 104.69 131.28 95.71
  Q 131.46 80.24 131.54 64.75
  Z
  M 170.0107 61.6911
  A 11.91 11.91 0.0 0 0 158.2261 49.6570
  L 157.2262 49.6465
  A 11.91 11.91 0.0 0 0 145.1921 61.4312
  L 144.7693 101.8089
  A 11.91 11.91 0.0 0 0 156.5539 113.8430
  L 157.5538 113.8535
  A 11.91 11.91 0.0 0 0 169.5879 102.0688
  L 170.0107 61.6911
  Z"
/>
<path fill="#f4ff25" d="
  M 72.13 119.53
  C 58.26 133.61 35.16 128.65 29.00 109.78
  Q 27.72 105.85 27.73 99.04
  Q 27.77 80.67 27.74 62.44
  A 0.61 0.60 -90.0 0 1 28.34 61.83
  L 40.21 61.72
  Q 41.34 61.71 41.32 62.84
  Q 40.95 80.16 40.97 97.79
  Q 40.98 103.94 42.39 106.97
  C 48.09 119.16 65.50 114.61 65.91 101.12
  Q 66.48 82.60 66.19 63.08
  Q 66.17 61.75 67.50 61.75
  L 79.22 61.75
  Q 79.80 61.75 79.80 62.33
  Q 79.66 80.61 79.50 98.81
  Q 79.46 104.05 80.76 106.83
  C 85.27 116.47 99.04 116.32 103.36 106.52
  Q 104.43 104.09 104.50 99.31
  Q 104.77 80.83 104.78 62.35
  Q 104.78 61.84 105.29 61.84
  L 117.71 61.72
  A 0.53 0.52 89.5 0 1 118.24 62.25
  Q 118.31 79.04 118.09 95.88
  Q 117.96 105.45 116.41 109.94
  C 109.87 128.85 86.98 133.32 72.98 119.53
  Q 72.55 119.10 72.13 119.53
  Z"
/>
<path fill="#f4ff25" d="
  M 201.33 127.68
  A 6.95 6.95 0.0 0 1 194.38 134.63
  A 6.95 6.95 0.0 0 1 187.43 127.68
  A 6.95 6.95 0.0 0 1 194.38 120.73
  A 6.95 6.95 0.0 0 1 201.33 127.68
  Z
  M 199.86 127.74
  A 5.48 5.48 0.0 0 0 194.38 122.26
  A 5.48 5.48 0.0 0 0 188.90 127.74
  A 5.48 5.48 0.0 0 0 194.38 133.22
  A 5.48 5.48 0.0 0 0 199.86 127.74
  Z"
/>
<path fill="#f4ff25" d="
  M 194.62 128.80
  A 0.75 0.75 0.0 0 0 193.25 129.28
  Q 193.33 130.08 193.21 130.80
  A 0.70 0.59 56.3 0 1 191.97 130.44
  L 192.31 124.99
  Q 192.34 124.55 192.74 124.35
  C 195.20 123.17 199.08 125.22 196.58 127.82
  Q 196.27 128.15 196.23 128.61
  Q 196.16 129.66 197.13 130.18
  A 0.33 0.33 0.0 0 1 197.27 130.61
  L 197.03 131.12
  A 0.50 0.50 0.0 0 1 196.16 131.18
  L 194.62 128.80
  Z
  M 196.0589 126.5841
  A 1.42 1.17 9.9 0 0 194.8612 125.1874
  A 1.42 1.17 9.9 0 0 193.2611 126.0959
  A 1.42 1.17 9.9 0 0 194.4588 127.4926
  A 1.42 1.17 9.9 0 0 196.0589 126.5841
  Z"
/>
</svg>
